<svg width="56" height="55" viewBox="0 0 56 55" fill="none" xmlns="http://www.w3.org/2000/svg">
<path d="M19.5533 27.5001L25.1767 33.0459L36.4467 21.9542" stroke="#5FB868" stroke-width="1.5" stroke-linecap="round" stroke-linejoin="round"/>
<path d="M25.0833 5.61453C26.6933 4.26244 29.33 4.26244 30.9633 5.61453L34.65 8.73119C35.35 9.32703 36.6567 9.80828 37.59 9.80828H41.5567C44.03 9.80828 46.06 11.802 46.06 14.2312V18.127C46.06 19.0208 46.55 20.327 47.1567 21.0145L50.33 24.6354C51.7067 26.2166 51.7067 28.8062 50.33 30.4104L47.1567 34.0312C46.55 34.7187 46.06 36.002 46.06 36.9187V40.8145C46.06 43.2437 44.03 45.2374 41.5567 45.2374H37.59C36.68 45.2374 35.35 45.7187 34.65 46.3145L30.9633 49.4312C29.3533 50.7833 26.7167 50.7833 25.0833 49.4312L21.3967 46.3145C20.6967 45.7187 19.39 45.2374 18.4567 45.2374H14.42C11.9467 45.2374 9.91668 43.2437 9.91668 40.8145V36.8958C9.91668 36.002 9.42668 34.7187 8.84334 34.0312L5.69334 30.3874C4.34001 28.8062 4.34001 26.2395 5.69334 24.6583L8.84334 21.0145C9.42668 20.327 9.91668 19.0437 9.91668 18.1499V14.2083C9.91668 11.7791 11.9467 9.78536 14.42 9.78536H18.4567C19.3667 9.78536 20.6967 9.30411 21.3967 8.70828L25.0833 5.61453Z" stroke="#5FB868" stroke-width="1.5" stroke-linecap="round" stroke-linejoin="round"/>
</svg>
