<svg width="73" height="73" viewBox="0 0 73 73" fill="none" xmlns="http://www.w3.org/2000/svg">
<path d="M66.9167 66.9167L60.8333 60.8333M34.9792 63.875C38.7738 63.875 42.5313 63.1276 46.0371 61.6754C49.5429 60.2233 52.7284 58.0948 55.4116 55.4116C58.0948 52.7284 60.2233 49.5429 61.6754 46.0371C63.1276 42.5313 63.875 38.7738 63.875 34.9792C63.875 31.1845 63.1276 27.427 61.6754 23.9212C60.2233 20.4154 58.0948 17.23 55.4116 14.5467C52.7284 11.8635 49.5429 9.73506 46.0371 8.28291C42.5313 6.83076 38.7738 6.08334 34.9792 6.08334C27.3155 6.08334 19.9658 9.12772 14.5467 14.5467C9.12772 19.9658 6.08334 27.3155 6.08334 34.9792C6.08334 42.6428 9.12772 49.9926 14.5467 55.4116C19.9658 60.8306 27.3155 63.875 34.9792 63.875Z" stroke="white" stroke-width="1.5" stroke-linecap="round" stroke-linejoin="round"/>
</svg>
